<svg width="63" height="85" viewBox="0 0 63 85" fill="none" xmlns="http://www.w3.org/2000/svg">
<path d="M34.7188 33.75H29.0469C26.6406 33.75 24.9062 33.1406 23.8438 31.9219C22.7812 30.6719 22.25 29.0312 22.25 27C22.25 22.5 25.6094 20.25 32.3281 20.25C38.6406 20.25 43.3906 21.1875 46.5781 23.0625L43.8594 25.125C41.6719 24.125 37.8281 23.625 32.3281 23.625C29.6406 23.625 27.8281 23.9219 26.8906 24.5156C25.9844 25.1094 25.5312 25.9375 25.5312 27C25.5312 28.0625 25.7812 28.8906 26.2812 29.4844C26.7812 30.0781 27.7031 30.375 29.0469 30.375H34.8594C39.0781 30.375 42.875 31.0938 46.25 32.5312C49.6562 33.9688 52.4531 35.9375 54.6406 38.4375C56.8281 40.9062 58.5 43.7656 59.6562 47.0156C60.8125 50.2344 61.3906 53.6875 61.3906 57.375C61.3906 60.375 60.9688 63.2188 60.125 65.9062C59.2812 68.5938 58 71.0625 56.2812 73.3125C54.5938 75.5625 52.5469 77.5156 50.1406 79.1719C47.7656 80.7969 44.9219 82.0625 41.6094 82.9688C38.3281 83.9062 34.7656 84.375 30.9219 84.375C24.8906 84.375 19.2344 83.4531 13.9531 81.6094C8.70312 79.7969 4.32812 77.25 0.828125 73.9688L3.54688 71.9531C6.73438 74.8281 10.7188 77.0625 15.5 78.6562C20.3125 80.2188 25.4531 81 30.9219 81C35.2031 81 39.0625 80.3906 42.5 79.1719C45.9688 77.9219 48.8125 76.2188 51.0312 74.0625C53.2812 71.9062 55 69.4062 56.1875 66.5625C57.4062 63.7188 58.0156 60.6562 58.0156 57.375C58.0156 53.0312 57.1406 49.1094 55.3906 45.6094C53.6406 42.0781 50.9688 39.2188 47.375 37.0312C43.8125 34.8438 39.5938 33.75 34.7188 33.75ZM29.0469 37.125H34.3906C40.7344 37.125 45.6875 39.0625 49.25 42.9375C52.8438 46.8125 54.6406 51.625 54.6406 57.375C54.6406 63.2188 52.5625 68.0625 48.4062 71.9062C44.25 75.7188 38.4219 77.625 30.9219 77.625C25.9219 77.625 21.25 76.9375 16.9062 75.5625C12.5625 74.1875 8.95312 72.25 6.07812 69.75L8.70312 67.6406C11.2656 69.7344 14.4844 71.3594 18.3594 72.5156C22.2656 73.6719 26.4531 74.25 30.9219 74.25C37.5156 74.25 42.5469 72.6719 46.0156 69.5156C49.5156 66.3594 51.2656 62.3125 51.2656 57.375C51.2656 52.5 49.7969 48.4688 46.8594 45.2812C43.9531 42.0938 39.7812 40.5 34.3438 40.5H29.0469C24.4844 40.5 21.0625 39.25 18.7812 36.75C16.5 34.25 15.3594 31 15.3594 27C15.3594 23 16.7656 19.75 19.5781 17.25C22.4219 14.75 26.6719 13.5 32.3281 13.5C36.2969 13.5 39.9844 13.9688 43.3906 14.9062C46.7969 15.8125 49.6094 17.125 51.8281 18.8438L49.1562 20.9062C45.25 18.2188 39.6406 16.875 32.3281 16.875C27.6094 16.875 24.1562 17.8125 21.9688 19.6875C19.8125 21.5312 18.7344 23.9688 18.7344 27C18.7344 30.0625 19.5312 32.5156 21.125 34.3594C22.75 36.2031 25.3906 37.125 29.0469 37.125ZM29.0469 43.875H34.2031C38.7656 43.875 42.1875 45.1406 44.4688 47.6719C46.75 50.2031 47.8906 53.4375 47.8906 57.375C47.8906 61.375 46.4688 64.625 43.625 67.125C40.8125 69.625 36.5781 70.875 30.9219 70.875C26.9531 70.875 23.25 70.4219 19.8125 69.5156C16.4062 68.5781 13.5938 67.25 11.375 65.5312L14.0469 63.4688C17.9531 66.1562 23.5781 67.5 30.9219 67.5C35.6406 67.5 39.0781 66.5781 41.2344 64.7344C43.4219 62.8594 44.5156 60.4062 44.5156 57.375C44.5156 54.3438 43.7031 51.9062 42.0781 50.0625C40.4531 48.1875 37.8125 47.25 34.1562 47.25H29.0469C22.6406 47.25 17.625 45.3438 14 41.5312C10.4062 37.6875 8.60938 32.8438 8.60938 27C8.60938 21.1562 10.6875 16.3281 14.8438 12.5156C19 8.67188 24.8281 6.75 32.3281 6.75C37.3281 6.75 41.9844 7.4375 46.2969 8.8125C50.6406 10.1875 54.25 12.125 57.125 14.625L54.5 16.7344C51.9375 14.6406 48.7188 13.0156 44.8438 11.8594C40.9688 10.7031 36.7969 10.125 32.3281 10.125C25.7344 10.125 20.6875 11.7031 17.1875 14.8594C13.7188 18.0156 11.9844 22.0625 11.9844 27C11.9844 31.9062 13.4531 35.9531 16.3906 39.1406C19.3281 42.2969 23.5469 43.875 29.0469 43.875ZM29.0469 50.625H34.2031C36.6094 50.625 38.3438 51.25 39.4062 52.5C40.4688 53.75 41 55.375 41 57.375C41 61.875 37.6406 64.125 30.9219 64.125C24.5781 64.125 19.8125 63.1875 16.625 61.3125L19.3438 59.25C21.5312 60.25 25.3906 60.75 30.9219 60.75C33.6094 60.75 35.4062 60.4531 36.3125 59.8594C37.25 59.2656 37.7188 58.4375 37.7188 57.375C37.7188 56.3438 37.4531 55.5312 36.9219 54.9375C36.4219 54.3125 35.4844 54 34.1094 54H29.0469C24.7344 54 20.8281 53.2969 17.3281 51.8906C13.8594 50.4844 11 48.5469 8.75 46.0781C6.53125 43.6094 4.82812 40.75 3.64062 37.5C2.45312 34.25 1.85938 30.75 1.85938 27C1.85938 24 2.28125 21.1562 3.125 18.4688C3.96875 15.7812 5.23438 13.3125 6.92188 11.0625C8.64062 8.8125 10.6875 6.875 13.0625 5.25C15.4688 3.59375 18.3125 2.3125 21.5938 1.40625C24.9062 0.46875 28.4844 0 32.3281 0C38.3594 0 44 0.921875 49.25 2.76562C54.5 4.57812 58.875 7.125 62.375 10.4062L59.6562 12.4219C56.4688 9.54688 52.4844 7.32812 47.7031 5.76562C42.9219 4.17188 37.7969 3.375 32.3281 3.375C28.0469 3.375 24.1719 4 20.7031 5.25C17.2656 6.46875 14.4219 8.15625 12.1719 10.3125C9.95312 12.4688 8.23438 14.9688 7.01562 17.8125C5.82812 20.6562 5.23438 23.7188 5.23438 27C5.23438 31.4062 6.125 35.375 7.90625 38.9062C9.6875 42.4375 12.4062 45.2812 16.0625 47.4375C19.7188 49.5625 24.0469 50.625 29.0469 50.625Z" fill="#FFA800"/>
</svg>
