<svg width="248" height="45" viewBox="0 0 248 45" fill="none" xmlns="http://www.w3.org/2000/svg">
<path d="M18.6035 18.3906H15.6494C14.3962 18.3906 13.4928 18.0732 12.9395 17.4385C12.3861 16.7874 12.1094 15.9329 12.1094 14.875C12.1094 12.5312 13.859 11.3594 17.3584 11.3594C20.6462 11.3594 23.1201 11.8477 24.7803 12.8242L23.3643 13.8984C22.2249 13.3776 20.223 13.1172 17.3584 13.1172C15.9587 13.1172 15.0146 13.2718 14.5264 13.5811C14.0544 13.8903 13.8184 14.3216 13.8184 14.875C13.8184 15.4284 13.9486 15.8597 14.209 16.1689C14.4694 16.4782 14.9495 16.6328 15.6494 16.6328H18.6768C20.874 16.6328 22.8516 17.0072 24.6094 17.7559C26.3835 18.5046 27.8402 19.5299 28.9795 20.832C30.1188 22.1178 30.9896 23.6071 31.5918 25.2998C32.194 26.9762 32.4951 28.7747 32.4951 30.6953C32.4951 32.2578 32.2754 33.7389 31.8359 35.1387C31.3965 36.5384 30.7292 37.8242 29.834 38.9961C28.9551 40.168 27.889 41.1852 26.6357 42.0479C25.3988 42.8942 23.9176 43.5534 22.1924 44.0254C20.4834 44.5137 18.6279 44.7578 16.626 44.7578C13.4847 44.7578 10.5387 44.2777 7.78809 43.3174C5.05371 42.3734 2.77507 41.0469 0.952148 39.3379L2.36816 38.2881C4.02832 39.7855 6.10352 40.9492 8.59375 41.7793C11.1003 42.5931 13.7777 43 16.626 43C18.8558 43 20.8659 42.6826 22.6562 42.0479C24.4629 41.3968 25.944 40.5098 27.0996 39.3867C28.2715 38.2637 29.1667 36.9616 29.7852 35.4805C30.4199 33.9993 30.7373 32.4043 30.7373 30.6953C30.7373 28.4329 30.2816 26.3903 29.3701 24.5674C28.4587 22.7282 27.0671 21.2389 25.1953 20.0996C23.3398 18.9603 21.1426 18.3906 18.6035 18.3906ZM15.6494 20.1484H18.4326C21.7367 20.1484 24.3164 21.1576 26.1719 23.1758C28.0436 25.194 28.9795 27.7005 28.9795 30.6953C28.9795 33.7389 27.8971 36.2617 25.7324 38.2637C23.5677 40.2493 20.5322 41.2422 16.626 41.2422C14.0218 41.2422 11.5885 40.8841 9.32617 40.168C7.0638 39.4518 5.18392 38.4427 3.68652 37.1406L5.05371 36.042C6.38835 37.1325 8.06478 37.9788 10.083 38.5811C12.1175 39.1833 14.2985 39.4844 16.626 39.4844C20.0602 39.4844 22.6807 38.6624 24.4873 37.0186C26.3102 35.3747 27.2217 33.2669 27.2217 30.6953C27.2217 28.1562 26.4567 26.0566 24.9268 24.3965C23.4131 22.7363 21.2402 21.9062 18.4082 21.9062H15.6494C13.2731 21.9062 11.4909 21.2552 10.3027 19.9531C9.11458 18.651 8.52051 16.9583 8.52051 14.875C8.52051 12.7917 9.25293 11.099 10.7178 9.79688C12.1989 8.49479 14.4124 7.84375 17.3584 7.84375C19.4255 7.84375 21.346 8.08789 23.1201 8.57617C24.8942 9.04818 26.359 9.73177 27.5146 10.627L26.123 11.7012C24.0885 10.3014 21.167 9.60156 17.3584 9.60156C14.9007 9.60156 13.1022 10.0898 11.9629 11.0664C10.8398 12.0267 10.2783 13.2962 10.2783 14.875C10.2783 16.4701 10.6934 17.7477 11.5234 18.708C12.3698 19.6683 13.7451 20.1484 15.6494 20.1484ZM15.6494 23.6641H18.335C20.7113 23.6641 22.4935 24.3232 23.6816 25.6416C24.8698 26.96 25.4639 28.6445 25.4639 30.6953C25.4639 32.7786 24.7233 34.4714 23.2422 35.7734C21.7773 37.0755 19.5719 37.7266 16.626 37.7266C14.5589 37.7266 12.6302 37.4906 10.8398 37.0186C9.06576 36.5303 7.60091 35.8385 6.44531 34.9434L7.83691 33.8691C9.87142 35.2689 12.8011 35.9688 16.626 35.9688C19.0837 35.9688 20.874 35.4886 21.9971 34.5283C23.1364 33.5518 23.7061 32.2741 23.7061 30.6953C23.7061 29.1165 23.2829 27.847 22.4365 26.8867C21.5902 25.9102 20.2148 25.4219 18.3105 25.4219H15.6494C12.3128 25.4219 9.70052 24.429 7.8125 22.4434C5.94076 20.4414 5.00488 17.9186 5.00488 14.875C5.00488 11.8314 6.08724 9.31673 8.25195 7.33105C10.4167 5.3291 13.4521 4.32812 17.3584 4.32812C19.9626 4.32812 22.3877 4.6862 24.6338 5.40234C26.8962 6.11849 28.776 7.1276 30.2734 8.42969L28.9062 9.52832C27.5716 8.43783 25.8952 7.59147 23.877 6.98926C21.8587 6.38704 19.6859 6.08594 17.3584 6.08594C13.9242 6.08594 11.2956 6.90788 9.47266 8.55176C7.66602 10.1956 6.7627 12.3034 6.7627 14.875C6.7627 17.4303 7.52767 19.5381 9.05762 21.1982C10.5876 22.8421 12.7848 23.6641 15.6494 23.6641ZM15.6494 27.1797H18.335C19.5882 27.1797 20.4915 27.5052 21.0449 28.1562C21.5983 28.8073 21.875 29.6536 21.875 30.6953C21.875 33.0391 20.1253 34.2109 16.626 34.2109C13.3219 34.2109 10.8398 33.7227 9.17969 32.7461L10.5957 31.6719C11.735 32.1927 13.7451 32.4531 16.626 32.4531C18.0257 32.4531 18.9616 32.2985 19.4336 31.9893C19.9219 31.68 20.166 31.2487 20.166 30.6953C20.166 30.1582 20.0277 29.735 19.751 29.4258C19.4906 29.1003 19.0023 28.9375 18.2861 28.9375H15.6494C13.4033 28.9375 11.3688 28.5713 9.5459 27.8389C7.73926 27.1064 6.25 26.0973 5.07812 24.8115C3.92253 23.5257 3.03548 22.0365 2.41699 20.3438C1.7985 18.651 1.48926 16.8281 1.48926 14.875C1.48926 13.3125 1.70898 11.8314 2.14844 10.4316C2.58789 9.0319 3.24707 7.74609 4.12598 6.57422C5.02116 5.40234 6.08724 4.39323 7.32422 3.54688C8.57747 2.68424 10.0586 2.01693 11.7676 1.54492C13.4928 1.05664 15.3564 0.8125 17.3584 0.8125C20.4997 0.8125 23.4375 1.29264 26.1719 2.25293C28.9062 3.19694 31.1849 4.52344 33.0078 6.23242L31.5918 7.28223C29.9316 5.78483 27.8564 4.62923 25.3662 3.81543C22.876 2.98535 20.2067 2.57031 17.3584 2.57031C15.1286 2.57031 13.1104 2.89583 11.3037 3.54688C9.51335 4.18164 8.03223 5.06055 6.86035 6.18359C5.70475 7.30664 4.80957 8.60872 4.1748 10.0898C3.55632 11.571 3.24707 13.166 3.24707 14.875C3.24707 17.1699 3.71094 19.237 4.63867 21.0762C5.56641 22.9154 6.98242 24.3965 8.88672 25.5195C10.791 26.6263 13.0452 27.1797 15.6494 27.1797ZM49.2809 43H47.4309V9.7H56.3809C60.6475 9.7 64.0475 10.65 66.5809 12.55C69.1142 14.4167 70.3809 17.2 70.3809 20.9C70.3809 24.7 69.0809 27.5333 66.4809 29.4C63.9142 31.2667 60.5475 32.2 56.3809 32.2H49.2809V43ZM56.3809 11.4H49.2809V30.45H56.3809C59.9809 30.45 62.8975 29.6833 65.1309 28.15C67.3975 26.5833 68.5309 24.1667 68.5309 20.9C68.5309 17.7333 67.4309 15.3667 65.2309 13.8C63.0309 12.2 60.0809 11.4 56.3809 11.4ZM82.0449 43L91.5949 12.8C92.3283 10.4333 93.8949 9.25 96.2949 9.25C98.6616 9.25 100.212 10.4333 100.945 12.8L110.495 43H108.695L105.495 32.8L87.0949 32.85L83.8949 43H82.0449ZM93.1949 13.3L87.5949 31.15H104.945L99.3449 13.3C98.8449 11.7 97.8283 10.9 96.2949 10.9C94.7283 10.9 93.6949 11.7 93.1949 13.3ZM134.854 43.3C132.287 43.3 129.987 42.7167 127.954 41.55C125.921 40.3833 124.471 38.75 123.604 36.65L125.154 35.85C125.921 37.65 127.154 39.05 128.854 40.05C130.587 41.05 132.587 41.55 134.854 41.55C137.454 41.55 139.604 40.8833 141.304 39.55C143.004 38.1833 143.854 36.3667 143.854 34.1C143.854 33.1333 143.671 32.2833 143.304 31.55C142.937 30.7833 142.504 30.1833 142.004 29.75C141.537 29.3167 140.837 28.9167 139.904 28.55C138.971 28.15 138.171 27.8667 137.504 27.7C136.837 27.5 135.904 27.2667 134.704 27C133.371 26.7 132.337 26.45 131.604 26.25C130.871 26.05 129.954 25.7167 128.854 25.25C127.787 24.7833 126.971 24.2667 126.404 23.7C125.837 23.1333 125.337 22.3833 124.904 21.45C124.471 20.5167 124.254 19.4333 124.254 18.2C124.254 15.7333 125.254 13.65 127.254 11.95C129.254 10.25 131.621 9.4 134.354 9.4C136.687 9.4 138.787 9.96666 140.654 11.1C142.554 12.2333 143.937 13.8333 144.804 15.9L143.304 16.75C142.504 14.95 141.321 13.5667 139.754 12.6C138.187 11.6333 136.371 11.15 134.304 11.15C132.104 11.15 130.187 11.8333 128.554 13.2C126.921 14.5667 126.104 16.2333 126.104 18.2C126.104 19.1667 126.287 20.0167 126.654 20.75C127.021 21.4833 127.437 22.0667 127.904 22.5C128.404 22.9333 129.121 23.35 130.054 23.75C131.021 24.1167 131.821 24.4 132.454 24.6C133.087 24.7667 134.021 24.9833 135.254 25.25C136.587 25.5833 137.604 25.85 138.304 26.05C139.037 26.25 139.954 26.5833 141.054 27.05C142.154 27.5167 142.987 28.0333 143.554 28.6C144.121 29.1667 144.621 29.9167 145.054 30.85C145.487 31.7833 145.704 32.8667 145.704 34.1C145.704 36.8667 144.687 39.1 142.654 40.8C140.621 42.4667 138.021 43.3 134.854 43.3ZM162.363 9.7H164.213V43H162.363V9.7ZM192.79 43H183.29V9.7H193.24C197.274 9.7 200.424 10.4167 202.69 11.85C204.957 13.25 206.09 15.3167 206.09 18.05C206.09 22.65 203.774 25.3833 199.14 26.25C204.24 26.9167 206.79 29.5 206.79 34C206.79 35.7667 206.424 37.2667 205.69 38.5C204.957 39.7333 203.907 40.6667 202.54 41.3C201.174 41.9333 199.707 42.3833 198.14 42.65C196.607 42.8833 194.824 43 192.79 43ZM185.14 11.35V25.45H193.04C197.04 25.45 199.907 24.8833 201.64 23.75C203.407 22.5833 204.29 20.7167 204.29 18.15C204.29 15.8833 203.324 14.1833 201.39 13.05C199.457 11.9167 196.757 11.35 193.29 11.35H185.14ZM185.14 27.1V41.35H192.84C194.607 41.35 196.124 41.2667 197.39 41.1C198.69 40.9 199.957 40.55 201.19 40.05C202.424 39.55 203.357 38.7833 203.99 37.75C204.657 36.7167 204.99 35.4333 204.99 33.9C204.99 31.5 204.04 29.7667 202.14 28.7C200.24 27.6333 197.207 27.1 193.04 27.1H185.14ZM219.32 43L228.87 12.8C229.604 10.4333 231.17 9.25 233.57 9.25C235.937 9.25 237.487 10.4333 238.22 12.8L247.77 43H245.97L242.77 32.8L224.37 32.85L221.17 43H219.32ZM230.47 13.3L224.87 31.15H242.22L236.62 13.3C236.12 11.7 235.104 10.9 233.57 10.9C232.004 10.9 230.97 11.7 230.47 13.3Z" fill="#00518C"/>
</svg>
